<svg xmlns="http://www.w3.org/2000/svg" viewBox="0 0 80 74.6"><path d="M56.6 59.3c-6-6-9.3-13.9-9.3-22.3V24c0-.5-.4-.8-.8-.8-.5 0-.8.4-.8.8 0 8.4-3.3 16.4-9.3 22.3L16.7 66c-.2.2-.3.4-.2.6 0 .2.1.5.3.6 6.8 4.8 14.8 7.4 23.2 7.4s16.3-2.6 23.2-7.4c.2-.1.3-.4.3-.6s-.1-.5-.2-.6l-6.7-6.7zM21.2 10.9V.8c0-.4-.4-.8-.8-.8-.1 0-.3 0-.4.1C7.7 7.2 0 20.5 0 34.7c0 1.1.1 2.4.2 3.7 0 .3.2.6.5.7H1c.2 0 .4-.1.6-.2l13.7-13.7c3.8-3.8 5.9-8.9 5.9-14.3zM60 .1c-.3-.1-.6-.1-.8 0-.3.1-.4.4-.4.7V37c0 5.4 2.1 10.4 5.9 14.2l6.7 6.7c.2.2.4.2.6.2h.1c.2 0 .5-.1.6-.3C77.4 51 80 43 80 34.7 80 20.5 72.3 7.2 60 .1zM28.4 38.2L8.7 57.9c-.2.2-.4.2-.6.2H8c-.2 0-.5-.1-.6-.3-1.1-1.5-2.1-3.2-3-4.8-.2-.3-.1-.7.2-1l18.8-18.8c6-6 9.3-13.9 9.3-22.3 0-.5.4-.8.8-.8s.8.4.8.8v13c0 5.4-2.1 10.5-5.9 14.3z" fill="#fff"/></svg>
