<?xml version="1.0" encoding="UTF-8"?>
<svg enable-background="new 0 0 80 74.6" version="1.1" viewBox="0 0 80 74.6" xml:space="preserve" xmlns="http://www.w3.org/2000/svg">
<style type="text/css">
	.st0{fill:#525DDC;}
</style>
<path class="st0" d="m56.6 59.3c-6-6-9.3-13.9-9.3-22.3v-13c0-0.5-0.4-0.8-0.8-0.8-0.5 0-0.8 0.4-0.8 0.8 0 8.4-3.3 16.4-9.3 22.3l-19.7 19.7c-0.2 0.2-0.3 0.4-0.2 0.6 0 0.2 0.1 0.5 0.3 0.6 6.8 4.8 14.8 7.4 23.2 7.4s16.3-2.6 23.2-7.4c0.2-0.1 0.3-0.4 0.3-0.6s-0.1-0.5-0.2-0.6l-6.7-6.7zm-35.4-48.4v-10.1c0-0.4-0.4-0.8-0.8-0.8-0.1 0-0.3 0-0.4 0.1-12.3 7.1-20 20.4-20 34.6 0 1.1 0.1 2.4 0.2 3.7 0 0.3 0.2 0.6 0.5 0.7h0.3c0.2 0 0.4-0.1 0.6-0.2l13.7-13.7c3.8-3.8 5.9-8.9 5.9-14.3zm38.8-10.8c-0.3-0.1-0.6-0.1-0.8 0-0.3 0.1-0.4 0.4-0.4 0.7v36.2c0 5.4 2.1 10.4 5.9 14.2l6.7 6.7c0.2 0.2 0.4 0.2 0.6 0.2h0.1c0.2 0 0.5-0.1 0.6-0.3 4.7-6.8 7.3-14.8 7.3-23.1 0-14.2-7.7-27.5-20-34.6zm-31.6 38.1l-19.7 19.7c-0.2 0.2-0.4 0.2-0.6 0.2h-0.1c-0.2 0-0.5-0.1-0.6-0.3-1.1-1.5-2.1-3.2-3-4.8-0.2-0.3-0.1-0.7 0.2-1l18.8-18.8c6-6 9.3-13.9 9.3-22.3 0-0.5 0.4-0.8 0.8-0.8s0.8 0.4 0.8 0.8v13c0 5.4-2.1 10.5-5.9 14.3z"/>
</svg>
