<svg viewBox="0 0 478.68 526.51" xmlns="http://www.w3.org/2000/svg"><g fill="#fff"><path d="m232.2 1.61c-1.75 1.31-2.13 4.42-2 18.41l.09 16.8-5.52 2.54c-7.48 3.09-49.2 37.48-54.63 45.09-10.84 13.87-13.43 24-12.32 46.11.84 16.68.87 17.08 4.42 21.51 4.72 5.78 13.56 9.18 23.21 8.85 5.75-.19 6.61 0 6.17 1.5-.21 1-4.42 16-9 33.33q-4.16 15.81-8.11 31.64-5.62.24-11.25.53c-9.37.48-11.58.93-13 2.51-1.66 1.7-1.68 5.31-.2 29.86q.86 14 1.69 27.95-6.21 10.29-12.24 20.64t-11.86 20.73l-3.71-5c-4.29-6.23-45.33-37.12-52.9-39.61l-5-1.92-2-16.69c-2.21-18.66-2.82-19.81-9.89-19-2.78.35-4.32 1.15-5 2.54-.55 1.18 0 9.08 1.18 18.4l2.1 16.37-4.42 3.09c-6.18 3.89-37.51 42.21-41.34 50.5-6.99 13.71-7.96 23.18-5.32 43.32 2.42 17.65 4 21.83 9.93 26.4 5.76 4.4 11.23 5.5 20.82 4l7.95-1.21q1.38 9.15 2.74 18.3l2.73 18.3q-6.44 1-12.86 2c-11.23 1.81-13.1 2.37-14.23 4.17a5.62 5.62 0 0 0 1.68 8c2.37 2.08 3.18.31 73.83-8.63q35.81-4.18 71.76-6.37 17-14.62 34.72-28.82t36.23-27.75l3.24 1.8c1.78 1 21.36 12.88 42.61 27.09s38.85 26.88 40 27.55c1.54 1.18 20.41 2 68.47 7.4 58.27 7.3 66.33 9.6 68.59 8.26 2.65-1.17 3.79-4.72 2.63-8.17-.71-1.84-1.87-2.28-13.21-4.13q-6.27-1-12.55-2 1.4-9.15 2.77-18.29t2.78-18.3l6.19 1c11.55 1.81 20.35-2 24.94-11.09 2.11-4.1 3-7.91 4.48-19.52 2.44-19.67.88-31.44-6.57-45.43-3.66-7.63-33.21-43.36-39.4-47.78q-2.5-1.89-5-3.77 1.06-8.28 2.12-16.57c1.89-14.78 1.92-16.79.24-18.41-2.7-2.77-8.88-3.32-10.67-1.11-.82 1-2.21 8.8-3.33 18.23l-2 16.48-4.41 1.4c-7.05 1.83-49.23 33.7-53.87 40.42-3.23 4.45-4.16 5.19-5.17 4-.71-.75-5.84-9.78-11.72-20q-5.26-9.29-10.69-18.53.88-14.62 1.76-29.24c2.08-34.62 3-32.32-12.09-33.52q-4.9-.41-9.83-.77-3.9-15.19-8-30.36c-4.38-16.68-8.56-31.52-8.87-33.13-.66-2.52-.41-2.72 3.14-2.6 7.94.26 17.56-4.32 22.31-10.6 3.15-4.15 4.59-35 1.86-44.36a65.21 65.21 0 0 0 -16.24-27.11c-9.16-9.84-45.16-38.19-50.76-40.21l-4.34-1.72.06-16.9c.08-18.59-.46-20-8-20-2.12-.01-4.85.7-5.92 1.6zm35.86 67.33c26.43 21.53 30.09 26.34 34 39.25 2.48 8.1 2.71 29.73.54 34.45-2.86 6.78-2.84 5.76-66.07 5.36q-28 .06-56.08 1.09l-3.54-2.27-3.55-2.25-.51-15.4c-.88-26.9 1.85-32.73 36.1-60.69 22.39-17.96 25.05-19.48 29.21-19.48s6.84 1.51 29.9 19.94zm7.26 96.66c.91 2.93 5 17.12 8.85 31.54s7.33 27.05 7.65 28c.52 1.9-2.4 1.24-51.18.9-48.89.27-51.7.92-51.17-1 .32-.91 4.19-15.15 8.67-31.47s8.72-30.57 9.07-31.57c.58-1.55 3.26-1.94 33.48-2q16.45 0 32.91.37zm39.54 101.22-1.38 27q7.78 12.86 15.26 25.8t14.56 26l-1.41 5.81c-.88 3.14-1.93 11.69-2.45 18.87-.9 12.47-.86 13.47 1.6 18.67 2 4.46 3.53 6.18 7.83 8.73 4.49 2.78 6.52 3.35 13.48 4q4.11.38 8.2.78-.9 9.19-1.79 18.41l-1.76 18.3q-9.52-.93-19.08-1.72t-19.15-1.47q-21.77-15.72-44.49-30.75c-36-23.67-47-29.15-48.82-28.74-1.37.3-19.79 13.22-40.05 29.21q-18.41 14.63-35.92 29.72-11.13.68-22.25 1.54t-22.24 1.93q-.88-9.21-1.75-18.42t-1.76-18.41l6.23-.58c7.17-.65 12.51-3 16.48-7.21 5.64-6 6-7.67 4.5-26.11-.69-9.38-1.91-18.71-2.61-20.87-1.22-3.22-1.09-4.43.28-6.54 1-1.47 7.65-13.09 15.08-25.87q6.83-11.53 13.9-23-.68-13-1.33-26l-1.32-26q38.38-1.9 76.77-1.9t76.75 2zm-226.38 45.91c21.12 15.42 24 18.29 28.06 24.62 6.34 9.89 8 15.79 9.39 31.52 1.24 13.65 1.23 13.64-1.48 16.68l-2.59 3q-23.47 2.22-46.86 5.21c-25.68 3.3-48.19 6.73-50.12 6.74a8.19 8.19 0 0 1 -6.13-2.86c-2.46-2.64-2.79-3.9-4.44-17.21-3.14-25.66-1.78-31 22.82-61.06 10-12.13 19.5-22.49 20.69-23a9.86 9.86 0 0 1 4.43-.95c1.26.11 13.26 7.81 26.23 17.31zm352.84 6.27c25.32 30.66 26.7 36.32 22.37 63.3-2.35 14.31-2.38 14.51-5.48 16.44l-3.09 1.93q-24.67-3.94-49.45-7t-49.52-5.16l-2.22-2.5c-2-2.28-2.14-3.49-1.54-14.68.79-14.88 3.34-24 9.8-34 4.1-6.25 7.4-9.36 27.59-24.38 12.71-9.33 24.48-17.07 25.76-17.32a9.75 9.75 0 0 1 4.53.16c1.19.44 10.93 10.83 21.25 23.21zm-340.32 102.72 1.92 18.4q-11.1 1.15-22.18 2.51t-22.15 2.88q-1.29-9.16-2.59-18.32l-2.55-18.33q11.37-1.58 22.77-3t22.8-2.58q.98 9.24 1.98 18.44zm326 6-2.61 18.32q-11.31-1.6-22.64-3t-22.68-2.62q1-9.19 2-18.4t2-18.39q11.67 1.25 23.32 2.69t23.28 3.1q-1.37 9.18-2.67 18.33z"/><path d="m226.11 265.56c-11.3 3.3-21.91 12.75-26.33 23.18-2.11 5-2.26 7.47-1.88 32.17.36 23.3.69 27.19 2.15 29.25l1.79 2.35q19-.51 38.07-.51c35.38.18 38.06.53 39.73-1.22 1.66-1.56 2-4.95 2.65-27.24.82-27.58.2-32.21-5-40.65-4-6.51-10.71-12.06-18.2-15.46-5.44-2.37-8.07-2.9-17.33-3.13-6.86-.11-12.69.33-15.65 1.26zm26.61 12.9c7.45 3.16 14.2 10.79 15.72 17.83.62 2.81.95 13.92.72 24.52q-.2 9.75-.4 19.49-14.1-.29-28.2-.3t-28.2.26q-.23-11.4-.44-22.79t-.44-22.7l3.27-5.26c7.63-12.35 23.74-17 37.97-11.05z"/><path d="m14.44 479.1q9.8-2 19.6-3.88c4.23-.8 7.73-.46 10.8 1.26a13.33 13.33 0 0 1 6.79 9.3 13.89 13.89 0 0 1 -7.22 14.9q7.62 9.52 15 19.14c-2.89.5-5.77 1-8.66 1.54q-6.75-9.27-13.75-18.46c-3.16.6-6.33 1.22-9.49 1.86l4.03 20.24c-2.43.49-4.85 1-7.28 1.49q-4.91-23.7-9.82-47.39zm11.77 19.25q5.64-1.12 11.28-2.19c5.6-1.06 7.74-5.09 7-9.11a6.4 6.4 0 0 0 -3.5-5 8.78 8.78 0 0 0 -5.82-.44q-5.92 1.13-11.85 2.3z"/><path d="m59.7 470.69c2.55-.42 5.1-.84 7.65-1.24q2.45 15.42 4.87 30.83c1 6.58 5.91 9.45 11.5 8.62s9.41-5 8.5-11.59q-2.14-15.45-4.3-30.91c2.56-.36 5.12-.7 7.67-1l4.2 31.75c1.29 10-5.44 17.64-15 19.06s-18.22-4-19.89-13.89q-2.58-15.83-5.2-31.63z"/><path d="m113.46 500a23.46 23.46 0 0 0 14.43 3.23c6-.65 9.4-3.7 9-7.69-.33-3.38-2.6-5.77-7.1-5.85-2.25 0-4-.12-6.62-.18-8.66-.21-13.91-5-14.77-12-1-8.22 4.31-14.8 14.8-15.93a30.16 30.16 0 0 1 16.95 3.42q-1.85 3.21-3.68 6.43a23.86 23.86 0 0 0 -12.82-2.43c-4.67.5-8.16 3.24-7.63 7.83.32 2.7 2.66 5.16 7.77 5.36 1.35.06 3.27.12 5.68.15 9.42.12 14.31 6 14.9 12.55.79 8.88-5.36 14.6-15.77 15.71a28.36 28.36 0 0 1 -19.34-4.47q2.09-3.07 4.2-6.13z"/><path d="m156.07 495.78a23.34 23.34 0 0 0 14.27 3.79c6-.41 9.54-3.32 9.31-7.33-.2-3.39-2.37-5.86-6.86-6.12-2.24-.13-4-.28-6.6-.44-8.64-.55-13.7-5.56-14.28-12.55-.7-8.26 4.88-14.62 15.4-15.33a30 30 0 0 1 16.77 4q-2 3.14-3.93 6.27a23.76 23.76 0 0 0 -12.7-3c-4.69.31-8.27 2.91-7.92 7.52.21 2.71 2.45 5.26 7.55 5.66 1.34.11 3.26.25 5.66.37 9.4.49 14.06 6.55 14.38 13.13.44 8.9-5.92 14.37-16.35 15.07a28.27 28.27 0 0 1 -19.14-5.22q2.2-2.87 4.44-5.82z"/><path d="m196.63 456.61q16.26-.67 32.53-.89l.09 6.94q-12.33.15-24.66.58l.48 13.8q10.38-.36 20.77-.53c0 2.18.07 4.35.11 6.53q-10.33.16-20.66.52.26 7.1.5 14.2 11.94-.4 23.89-.56l.09 6.93q-15.57.19-31.13.84z"/><path d="m281.54 491.57a15 15 0 0 1 -1.38 6.08 13.16 13.16 0 0 1 -3.34 4.38 13.4 13.4 0 0 1 -4.87 2.62 19.8 19.8 0 0 1 -6.08.78q-10.59-.23-21.2-.24l.06-48.41q10.53 0 21.07.22a21.34 21.34 0 0 1 7 1.18 14.48 14.48 0 0 1 5 3 11.56 11.56 0 0 1 2.95 4.52 15.48 15.48 0 0 1 .83 5.74 10.13 10.13 0 0 1 -.76 3.65 12 12 0 0 1 -1.6 2.77 9.82 9.82 0 0 1 -1.88 1.88c-.65.48-1.16.85-1.54 1.11.5.34 1.09.76 1.78 1.28a10.37 10.37 0 0 1 2 2 10.82 10.82 0 0 1 1.53 3 12.5 12.5 0 0 1 .43 4.44zm-12.36-19.88a4.33 4.33 0 0 0 -.89-2.7c-.62-.86-1.78-1.3-3.48-1.33q-3.85-.07-7.71-.12c0 2.63-.06 5.25-.1 7.88l7.66.12c1.69 0 2.86-.36 3.51-1.18a4.39 4.39 0 0 0 1.01-2.67zm.26 18.85a4.8 4.8 0 0 0 -.91-2.91 4 4 0 0 0 -3.44-1.4c-2.74-.05-5.48-.1-8.22-.13 0 2.83-.07 5.67-.1 8.5 2.72 0 5.43.07 8.15.13a4 4 0 0 0 3.48-1.29 5 5 0 0 0 1.04-2.9z"/><path d="m292.32 506.3 2.19-48.37q6.25.29 12.49.64-1.06 18.87-2.12 37.74 10.31.58 20.61 1.36c-.27 3.53-.53 7.05-.8 10.58q-16.17-1.25-32.37-1.95z"/><path d="m361.77 511.69-1.47-7.41q-7.5-.81-15-1.52l-3.06 7c-4.16-.39-8.32-.74-12.48-1.08q10.77-23.42 22.32-46.63c3.2.31 6.41.64 9.61 1q6.68 25 12.55 50.16-6.24-.83-12.47-1.52zm-6.44-30.9q-2.88 6.19-5.73 12.41l8.58.87q-1.39-6.65-2.85-13.28z"/><path d="m409.46 518q-5.86-13.23-12.07-26.39-1.71 12-3.4 24.1-5.94-.84-11.88-1.6l6.21-48q5.43.7 10.86 1.46 6.4 13.19 12.45 26.43 1.86-12 3.71-24.06 6.2 1 12.39 2-4 23.88-7.91 47.77-5.17-.89-10.36-1.71z"/><path d="m460.48 524.41a17.26 17.26 0 0 1 -3.28 1.07 16.87 16.87 0 0 1 -3.71.36 23.61 23.61 0 0 1 -4.36-.47 19.83 19.83 0 0 1 -7.23-2.8 19.22 19.22 0 0 1 -5.16-5.06 14.42 14.42 0 0 1 -2.19-4.57 18.73 18.73 0 0 1 -.66-4.85 30.37 30.37 0 0 1 .4-5.07c.28-1.73.58-3.48.89-5.27s.64-3.53 1-5.25a29.44 29.44 0 0 1 1.36-4.9 18.72 18.72 0 0 1 2.32-4.32 14.34 14.34 0 0 1 3.74-3.51 19.4 19.4 0 0 1 6.86-2.85 20.64 20.64 0 0 1 8.08.12 24.83 24.83 0 0 1 4.4 1.24 17 17 0 0 1 6.17 4.09 23.38 23.38 0 0 1 2.22 2.71c-3.24 2-6.47 4-9.67 6.09a14.38 14.38 0 0 0 -2-2.34 6.28 6.28 0 0 0 -3.14-1.38 6.71 6.71 0 0 0 -3 0 5.36 5.36 0 0 0 -2.16 1.08 7.69 7.69 0 0 0 -1 1.05 7.38 7.38 0 0 0 -1 1.83 28.22 28.22 0 0 0 -1 3.24q-.53 2-1.14 5.28t-.86 5.34a31 31 0 0 0 -.25 3.38 7.73 7.73 0 0 0 .22 2.05 8.12 8.12 0 0 0 .52 1.34 5.37 5.37 0 0 0 1.57 1.79 6.4 6.4 0 0 0 2.69 1.1 6.11 6.11 0 0 0 3.34-.1 15.2 15.2 0 0 0 2.69-1.41q3.18 4.65 6.3 9.33a22 22 0 0 1 -2.96 1.66z"/></g></svg>