<?xml version="1.0" encoding="utf-8"?>
<!-- Generator: Adobe Illustrator 22.1.0, SVG Export Plug-In . SVG Version: 6.00 Build 0)  -->
<svg version="1.1" id="Layer_1" xmlns="http://www.w3.org/2000/svg" xmlns:xlink="http://www.w3.org/1999/xlink" x="0px" y="0px"
	 viewBox="0 0 80 74.6" style="enable-background:new 0 0 80 74.6;" xml:space="preserve">
<style type="text/css">
	.st0{fill:#FFFFFF;}
</style>
<path class="st0" d="M56.6,59.3c-6-6-9.3-13.9-9.3-22.3V24c0-0.5-0.4-0.8-0.8-0.8c-0.5,0-0.8,0.4-0.8,0.8c0,8.4-3.3,16.4-9.3,22.3
	L16.7,66c-0.2,0.2-0.3,0.4-0.2,0.6c0,0.2,0.1,0.5,0.3,0.6c6.8,4.8,14.8,7.4,23.2,7.4s16.3-2.6,23.2-7.4c0.2-0.1,0.3-0.4,0.3-0.6
	c0-0.2-0.1-0.5-0.2-0.6L56.6,59.3L56.6,59.3z M21.2,10.9V0.8c0-0.4-0.4-0.8-0.8-0.8c-0.1,0-0.3,0-0.4,0.1C7.7,7.2,0,20.5,0,34.7
	c0,1.1,0.1,2.4,0.2,3.7c0,0.3,0.2,0.6,0.5,0.7c0.1,0,0.2,0,0.3,0c0.2,0,0.4-0.1,0.6-0.2l13.7-13.7C19.1,21.4,21.2,16.3,21.2,10.9
	L21.2,10.9z M60,0.1c-0.3-0.1-0.6-0.1-0.8,0c-0.3,0.1-0.4,0.4-0.4,0.7V37c0,5.4,2.1,10.4,5.9,14.2l6.7,6.7c0.2,0.2,0.4,0.2,0.6,0.2
	c0,0,0,0,0.1,0c0.2,0,0.5-0.1,0.6-0.3C77.4,51,80,43,80,34.7C80,20.5,72.3,7.2,60,0.1L60,0.1z M28.4,38.2L8.7,57.9
	c-0.2,0.2-0.4,0.2-0.6,0.2c0,0,0,0-0.1,0c-0.2,0-0.5-0.1-0.6-0.3c-1.1-1.5-2.1-3.2-3-4.8c-0.2-0.3-0.1-0.7,0.2-1l18.8-18.8
	c6-6,9.3-13.9,9.3-22.3c0-0.5,0.4-0.8,0.8-0.8c0.4,0,0.8,0.4,0.8,0.8v13C34.3,29.3,32.2,34.4,28.4,38.2z"/>
</svg>
