<svg id="Calque_1" xmlns="http://www.w3.org/2000/svg" viewBox="0 0 80 74.6"><style>.st0{fill:#fcfcfc}</style><path class="st0" d="M39.1 2.4c-.2.2-.3.6-.3 2.4V7l-.7.3c-1 .4-6.5 5-7.3 6-1.4 1.8-1.8 3.2-1.6 6.1.1 2.2.1 2.3.6 2.9.6.8 1.8 1.2 3.1 1.2.8 0 .9 0 .8.2 0 .1-.6 2.1-1.2 4.4-.4 1.4-.7 2.8-1.1 4.2-.5 0-1 0-1.5.1-1.2.1-1.5.1-1.7.3-.2.2-.2.7 0 4 .1 1.2.1 2.5.2 3.7-.5.9-1.1 1.8-1.6 2.7-.5.9-1.1 1.8-1.6 2.8l-.5-.7c-.6-.8-6-4.9-7-5.3l-.7-.1-.3-2.2c-.3-2.5-.4-2.6-1.3-2.5-.4.1-.6.1-.7.3-.1.2 0 1.2.2 2.4l.3 2.2-.6.4c-.8.5-5 5.6-5.5 6.7-.9 1.8-1.1 3.1-.7 5.8.3 2.3.5 2.9 1.3 3.5.8.6 1.5.7 2.8.5l1.1-.2c.1.8.2 1.6.4 2.4l.4 2.4c-.6.1-1.1.2-1.7.3-1.5.2-1.7.3-1.9.6-.2.3-.1.8.2 1 .3.3.4 0 9.8-1.1 3.2-.4 6.4-.7 9.5-.9 1.5-1.3 3-2.6 4.6-3.8 1.6-1.2 3.2-2.5 4.8-3.7l.4.2c.2.1 2.8 1.7 5.7 3.6 2.8 1.9 5.2 3.6 5.3 3.7.2.2 2.7.3 9.1 1 7.8 1 8.8 1.3 9.1 1.1.3-.2.5-.6.3-1.1-.1-.2-.3-.3-1.8-.5-.6-.1-1.1-.2-1.7-.3.1-.8.3-1.6.4-2.4.1-.8.2-1.6.4-2.4l.8.1c1.5.2 2.7-.3 3.3-1.5.3-.5.4-1.1.6-2.6.3-2.6.1-4.2-.9-6-.5-1-4.4-5.8-5.2-6.4-.2-.2-.4-.3-.7-.5.1-.7.2-1.5.3-2.2.3-2 .3-2.2 0-2.4-.4-.4-1.2-.4-1.4-.1-.1.1-.3 1.2-.4 2.4l-.3 2.2-.4.2c-.9.2-6.5 4.5-7.2 5.4-.4.6-.6.7-.7.5-.1-.1-.8-1.3-1.6-2.7-.5-.8-.9-1.6-1.4-2.5.1-1.3.2-2.6.2-3.9.3-4.6.4-4.3-1.6-4.5-.4 0-.9-.1-1.3-.1-.3-1.3-.7-2.7-1.1-4-.6-2.2-1.1-4.2-1.2-4.4-.1-.3-.1-.4.4-.3 1.1 0 2.3-.6 3-1.4.4-.5.6-4.7.3-5.9-.4-1.4-1.2-2.6-2.2-3.6-1.2-1.3-6-5.1-6.8-5.3l-.6-.2V4.9c0-2.5-.1-2.7-1.1-2.7-.1 0-.5.1-.6.2zm4.8 8.9c3.5 2.9 4 3.5 4.5 5.2.3 1.1.4 3.9.1 4.6-.4.9-.4.8-8.8.7-2.5 0-5 .1-7.5.1l-.5-.3-.5-.3-.1-2c-.1-3.6.3-4.3 4.8-8.1 3-2.4 3.3-2.6 3.9-2.6s1 .3 4.1 2.7zm.9 12.9c.1.4.7 2.3 1.2 4.2s1 3.6 1 3.7c.1.3-.3.2-6.8.1-6.5 0-6.9.1-6.8-.1 0-.1.6-2 1.2-4.2s1.2-4.1 1.2-4.2c.1-.2.4-.3 4.5-.3 1.5 0 2.9 0 4.4.1l.1.7zm5.3 13.5l-.2 3.6c.7 1.1 1.4 2.3 2 3.4.7 1.1 1.3 2.3 1.9 3.5l-.2.8c-.1.4-.3 1.6-.3 2.5-.1 1.7-.1 1.8.2 2.5.3.6.5.8 1 1.2.6.4.9.5 1.8.5.4 0 .7.1 1.1.1-.1.8-.2 1.6-.2 2.4l-.2 2.4c-.8-.1-1.7-.2-2.5-.2-.9-.1-1.7-.1-2.5-.2-2-1.4-4-2.8-6-4.1-4.8-3.2-6.2-3.9-6.5-3.8-.2 0-2.6 1.8-5.3 3.9l-4.8 3.9c-1 .1-2 .1-3 .2l-3 .3c-.1-.8-.2-1.6-.2-2.4-.1-.8-.2-1.6-.2-2.4l.8-.1c1-.1 1.7-.4 2.2-1 .7-.8.8-1 .6-3.5-.1-1.2-.3-2.5-.3-2.8-.2-.4-.1-.6 0-.9.1-.2 1-1.7 2-3.4.6-1 1.2-2 1.8-3.1-.1-1.2-.1-2.3-.2-3.5l-.2-3.5a173.663 173.663 0 0 1 20.4 0v3.7zM20 43.8c2.8 2 3.2 2.4 3.7 3.3.8 1.3 1.1 2.1 1.2 4.2.2 1.8.2 1.8-.2 2.2l-.3.4c-2.1.2-4.2.4-6.2.7-3.4.4-6.4.9-6.7.9-.3 0-.6-.1-.8-.4-.3-.3-.4-.5-.6-2.3-.4-3.4-.2-4.1 3-8.1 1.3-1.6 2.6-3 2.8-3.1.2-.1.4-.1.6-.1.2 0 1.8 1 3.5 2.3zm46.9.8c3.4 4.1 3.6 4.8 3 8.4-.3 1.9-.3 1.9-.7 2.2l-.4.3c-2.2-.3-4.4-.7-6.6-.9-2.2-.3-4.4-.5-6.6-.7l-.3-.3c-.3-.3-.3-.5-.2-2 .1-2 .4-3.2 1.3-4.5.5-.8 1-1.2 3.7-3.2 1.7-1.2 3.3-2.3 3.4-2.3h.6c.1 0 1.4 1.4 2.8 3zM21.7 58.3l.3 2.4-3 .3c-1 .1-2 .3-3 .4l-.3-2.4-.3-2.4c1-.1 2-.3 3-.4l3-.3c.1.7.2 1.5.3 2.4zm43.3.8l-.3 2.4c-1-.1-2-.3-3-.4l-3-.3.3-2.4.3-2.4c1 .1 2.1.2 3.1.4 1 .1 2.1.3 3.1.4-.3.6-.4 1.4-.5 2.3z"/><path class="st0" d="M38.3 37.5c-1.5.4-2.9 1.7-3.5 3.1-.3.7-.3 1-.3 4.3.1 3.1.1 3.6.3 3.9l.2.3c1.7 0 3.4-.1 5.1-.1 4.7 0 5.1.1 5.3-.2.2-.2.3-.7.3-3.6.1-3.7 0-4.3-.7-5.4-.5-.9-1.4-1.6-2.4-2.1-.7-.3-1.1-.4-2.3-.4-.8 0-1.6.1-2 .2zm3.5 1.7c1 .4 1.9 1.4 2.1 2.4.1.4.1 1.8.1 3.2 0 .9 0 1.7-.1 2.6h-7.6c0-1 0-2-.1-3 0-1 0-2-.1-3l.4-.7c1.3-1.7 3.4-2.3 5.3-1.5zM9.7 65.9c.9-.2 1.7-.3 2.6-.5.6-.1 1-.1 1.4.2.5.3.8.7.9 1.2.2.8-.2 1.6-1 2 .7.8 1.3 1.7 2 2.5-.4.1-.8.1-1.2.2-.6-.8-1.2-1.6-1.8-2.5-.4.1-.8.2-1.3.3L12 72c-.3.1-.7.1-1 .2-.4-2.1-.8-4.2-1.3-6.3zm1.6 2.6l1.5-.3c.7-.1 1-.7.9-1.2 0-.3-.2-.5-.5-.7-.2-.1-.5-.1-.8-.1-.5.1-1.1.2-1.6.3l.5 2zm4.5-3.7l1-.2c.2 1.4.4 2.7.7 4.1.1.9.8 1.3 1.5 1.1.7-.1 1.2-.7 1.1-1.5l-.6-4.1c.3-.1.7-.1 1-.1l.6 4.2c.2 1.3-.7 2.3-2 2.5-1.3.2-2.4-.5-2.6-1.8-.3-1.4-.5-2.8-.7-4.2zm7.1 3.9c.6.3 1.2.5 1.9.4.8-.1 1.2-.5 1.2-1s-.3-.8-.9-.8h-.9c-1.2 0-1.8-.7-2-1.6-.1-1.1.6-2 2-2.1.8-.1 1.6.1 2.2.5-.2.3-.3.6-.5.9-.5-.3-1.1-.4-1.7-.3-.6.1-1.1.4-1 1 0 .4.4.7 1 .7h.8c1.3 0 1.9.8 2 1.7.1 1.2-.7 1.9-2.1 2.1-.9.1-1.8-.1-2.6-.6.2-.4.4-.7.6-.9zm5.7-.6c.6.4 1.2.5 1.9.5.8-.1 1.3-.4 1.2-1 0-.5-.3-.8-.9-.8-.3 0-.5 0-.9-.1-1.1-.1-1.8-.7-1.9-1.7-.1-1.1.7-1.9 2-2 .8 0 1.6.1 2.2.5-.2.3-.3.6-.5.8-.5-.3-1.1-.4-1.7-.4-.6 0-1.1.4-1.1 1 0 .4.3.7 1 .7.2 0 .4 0 .8.1 1.2.1 1.9.9 1.9 1.7.1 1.2-.8 1.9-2.2 2-.9.1-1.8-.2-2.5-.7.3-.1.5-.3.7-.6zm5.4-5.2c1.4-.1 2.9-.1 4.3-.1v.9c-1.1 0-2.2 0-3.3.1 0 .6 0 1.2.1 1.8.9 0 1.8-.1 2.8-.1v.9c-.9 0-1.8 0-2.7.1l.1 1.9c1.1 0 2.1-.1 3.2-.1v.9c-1.4 0-2.8.1-4.1.1-.3-2.1-.4-4.3-.4-6.4zm11.8 4.6c0 .3-.1.6-.2.8-.1.2-.3.4-.4.6s-.4.3-.6.3c-.3.1-.5.1-.8.1H41v-6.4h2.8c.3 0 .6.1.9.2.3.1.5.2.7.4.2.2.3.4.4.6.1.2.1.5.1.8 0 .2 0 .3-.1.5-.1.1-.1.3-.2.4l-.3.3c-.1.1-.2.1-.2.1.1 0 .1.1.2.2l.3.3c.1.1.2.3.2.4v.4zm-1.6-2.6c0-.1 0-.3-.1-.4-.1-.1-.2-.2-.5-.2h-1v1.1h1c.2 0 .4-.1.5-.2 0-.1.1-.2.1-.3zm0 2.5c0-.1 0-.3-.1-.4-.1-.1-.2-.2-.5-.2h-1.1v1.1h1.1c.2 0 .3 0 .5-.2 0 0 .1-.2.1-.3zm3 2.1c.1-2.1.2-4.3.3-6.4.6 0 1.1.1 1.7.1-.1 1.7-.2 3.4-.3 5 .9.1 1.8.1 2.7.2l-.1 1.4c-1.4-.2-2.8-.2-4.3-.3zm9.3.7l-.2-1c-.7-.1-1.3-.1-2-.2-.1.3-.3.6-.4.9-.6-.1-1.1-.1-1.7-.1 1-2.1 1.9-4.1 3-6.2.4 0 .9.1 1.3.1.6 2.2 1.1 4.4 1.7 6.7-.6-.1-1.2-.1-1.7-.2zm-.9-4.1c-.3.5-.5 1.1-.8 1.6.4 0 .8.1 1.1.1 0-.5-.2-1.1-.3-1.7zm7.2 5c-.5-1.2-1.1-2.3-1.6-3.5l-.5 3.2c-.5-.1-1.1-.1-1.6-.2.3-2.1.6-4.3.8-6.4.5.1 1 .1 1.4.2.6 1.2 1.1 2.3 1.6 3.5l.5-3.2c.5.1 1.1.2 1.6.3l-1.1 6.4c-.2-.2-.6-.3-1.1-.3zm6.8.8c-.1.1-.3.1-.4.1-.2 0-.3.1-.5.1s-.4 0-.6-.1c-.3-.1-.7-.2-1-.4-.3-.2-.5-.4-.7-.7l-.3-.6c-.1-.2-.1-.4-.1-.6 0-.2 0-.5.1-.7 0-.2.1-.5.1-.7 0-.2.1-.5.1-.7 0-.2.1-.4.2-.7l.3-.6c.1-.2.3-.3.5-.5.3-.2.6-.3.9-.4.4-.1.7-.1 1.1 0 .2 0 .4.1.6.2.2.1.3.1.5.2.1.1.3.2.4.3.1.1.2.2.3.4-.4.3-.9.5-1.3.8l-.3-.3c-.1-.1-.3-.2-.4-.2h-.4c-.1 0-.2.1-.3.1-.1.1-.2.2-.3.4-.1.4-.1.5-.1.7-.1.2-.1.4-.1.7s-.1.5-.1.7v.8c0 .1 0 .1.1.2s.1.2.2.2c.1.1.2.1.4.1h.4c.1-.1.2-.1.4-.2.3.4.6.8.8 1.2-.2.1-.4.2-.5.2z"/></svg>